  <svg
              width="30"
              height="30"
              viewBox="0 0 30 30"
              fill="none"
              xmlns="http://www.w3.org/2000/svg"
            >
              <path
                d="M27.4062 10.228L19.5157 9.40576C19.0182 9.35593 18.5884 9.0071 18.3852 8.48387L15.559 0.934347C15.1068 -0.311449 13.5013 -0.311449 13.0491 0.934347L10.2455 8.48387C10.0646 9.0071 9.61243 9.35593 9.11502 9.40576L1.22426 10.228C0.0485649 10.3526 -0.426237 11.9721 0.455538 12.8442L6.40186 18.5997C6.78623 18.9735 6.94449 19.5216 6.83145 20.0698L5.04529 28.1423C4.77397 29.4132 6.0175 30.4595 7.05754 29.787L13.6369 25.5261C14.0665 25.252 14.5865 25.252 15.0161 25.5261L21.5957 29.787C22.6358 30.4595 23.8793 29.4382 23.6078 28.1423L21.8442 20.0698C21.7312 19.5216 21.8894 18.9735 22.2738 18.5997L28.2201 12.8442C29.0793 11.9721 28.5819 10.3526 27.4062 10.228Z"
                fill="#FFC22B"
              />
            </svg>
