  <svg
              width="24"
              height="24"
              viewBox="0 0 24 24"
              fill="none"
              xmlns="http://www.w3.org/2000/svg"
            >
              <path
                d="M11.9603 13.8164C15.5071 13.8164 18.3839 11.0528 18.3839 7.64567C18.3839 4.23853 15.5071 1.49384 11.9603 1.49384C8.41352 1.49384 5.53665 4.25744 5.53665 7.64567C5.53665 11.0339 8.41347 13.8164 11.9603 13.8164ZM11.9603 3.10278C14.5613 3.10278 16.6894 5.14706 16.6894 7.64567C16.6894 10.1443 14.5613 12.1885 11.9603 12.1885C9.35932 12.1885 7.23122 10.1442 7.23122 7.64563C7.23122 5.14702 9.35928 3.10278 11.9603 3.10278Z"
                fill="#6E798C"
              />
              <path
                d="M0.847282 23.4511H23.1527C23.6256 23.4511 24 23.0914 24 22.6372C24 18.3782 20.3941 14.8953 15.9409 14.8953H8.05912C3.62562 14.8953 0 18.3592 0 22.6372C0 23.0914 0.374378 23.4511 0.847282 23.4511ZM8.05912 16.5231H15.9409C19.1724 16.5231 21.8325 18.8325 22.2463 21.8232H1.75369C2.16747 18.8514 4.8276 16.5231 8.05912 16.5231Z"
                fill="#6E798C"
              />
            </svg>